# xmcd
#
# Track frame offsets:
#	150
#	9990
#	21433
#	32277
#	43568
#	59845
#	75336
#	87875
#	105595
#	124922
#	137861
#	154981
#	170067
#	186386
#	203453
#	217626
#	235331
#	248457
#
# Disc length: 3539 seconds
#
# Revision: 1
# Processed by: cddbd v1.5.2PL0 Copyright (c) Steve Scherf et al.
# Submitted via: audiograbber 1.83.01
#
DISCID=e50dd112
DTITLE=VARIOUS  - STC VOL 9
DYEAR=1900
DGENRE=COUNTRY 
TTITLE0=Conway Twitty  - It's Only Make Believe 
TTITLE1=Marty Robbins  - A White  Sport Coat 
TTITLE2=Roger Miller  - King Of The Road 
TTITLE3=Johnny Horton  - Batgtle Of New Orleans 
TTITLE4=Paul Brandt  - I Do
TTITLE5=Brooks and Dunn  - My Maria 
TTITLE6=Joe Diffie  - Third Rock From The Sun 
TTITLE7=George Fox  - I Give You My Word 
TTITLE8=Restless Heart  - I'll Still Be Loving You 
TTITLE9=Charlie Rich  - Behind Close Doors 
TTITLE10=Dwight Yoakam  - Suspicious Minds 
TTITLE11=Deana Carter  - We Danced Anyway 
TTITLE12=Michelle Wright  - One Good Man 
TTITLE13=Trisha Yearwood  - There Goes My Baby 
TTITLE14=Leahy  - Call To Dance (Remix Edit )
TTITLE15=Little Texas  - What Might Have Been 
TTITLE16=Vince Gill  - Liza Jane 
TTITLE17=Dixie Chicks  - Wide Open Spaces 
EXTD=
EXTT0=
EXTT1=
EXTT2=
EXTT3=
EXTT4=
EXTT5=
EXTT6=
EXTT7=
EXTT8=
EXTT9=
EXTT10=
EXTT11=
EXTT12=
EXTT13=
EXTT14=
EXTT15=
EXTT16=
EXTT17=
PLAYORDER=
